<svg xmlns="http://www.w3.org/2000/svg" xmlns:xlink="http://www.w3.org/1999/xlink" preserveAspectRatio="xMidYMid" width="243" height="243" viewBox="0 0 27 27">
  <path d="M24.286,6.499 C20.696,0.279 12.743,-1.854 6.523,1.739 C0.305,5.327 -1.829,13.282 1.764,19.502 C5.352,25.722 13.308,27.851 19.527,24.261 C25.747,20.670 27.876,12.718 24.286,6.499 L24.286,6.499 ZM18.226,22.008 C13.252,24.882 6.889,23.175 4.015,18.200 C1.142,13.225 2.846,6.864 7.822,3.991 C12.797,1.117 19.162,2.823 22.032,7.797 C24.904,12.772 23.201,19.135 18.226,22.008 L18.226,22.008 ZM17.705,12.470 L10.895,8.498 C10.275,8.137 9.777,8.426 9.778,9.143 C9.781,11.113 9.777,17.025 9.777,17.025 C9.781,17.747 10.325,18.039 10.945,17.677 L17.703,13.776 C18.324,13.416 18.327,12.833 17.705,12.470 L17.705,12.470 Z" transform="translate(0.48 0.5)"/>
</svg>
